<?xml version="1.0" encoding="utf-8"?>
<!-- Generator: Adobe Illustrator 16.0.0, SVG Export Plug-In . SVG Version: 6.00 Build 0)  -->
<!DOCTYPE svg PUBLIC "-//W3C//DTD SVG 1.1//EN" "http://www.w3.org/Graphics/SVG/1.1/DTD/svg11.dtd">
<svg version="1.1" id="Layer_1" xmlns="http://www.w3.org/2000/svg" xmlns:xlink="http://www.w3.org/1999/xlink" x="0px" y="0px"
	 width="1440px" height="1440px" viewBox="0 0 1440 1440" enable-background="new 0 0 1440 1440" xml:space="preserve">
<rect x="265.942" y="714.949" fill="#FFFFFF" stroke="#000000" stroke-miterlimit="10" width="403.933" height="403.933"/>
<rect x="396.923" y="992.746" fill="#FFFFFF" stroke="#000000" stroke-miterlimit="10" width="40.055" height="30.67"/>
<rect x="503.683" y="992.746" fill="#FFFFFF" stroke="#000000" stroke-miterlimit="10" width="34.683" height="30.67"/>
<text transform="matrix(1 0 0 1 429.4678 890.7725)" font-family="'MyriadPro-Regular'" font-size="12">Wooden Frame</text>
<text transform="matrix(1 0 0 1 388.8418 971.2783)" font-family="'MyriadPro-Regular'" font-size="12">USB Socket</text>
<text transform="matrix(1 0 0 1 465.1235 971.2783)" font-family="'MyriadPro-Regular'" font-size="12">Ethernet CAT-5 Socket</text>
<rect x="750.568" y="714.949" fill="#FFFFFF" stroke="#000000" stroke-miterlimit="10" width="403.933" height="403.933"/>
<polyline fill="none" stroke="#000000" stroke-miterlimit="10" points="750.568,714.949 786.866,678.651 1189.584,679.866 "/>
<polyline fill="none" stroke="#000000" stroke-miterlimit="10" points="1154.501,1118.882 1192.915,1080.468 1189.584,679.866 
	1154.501,714.949 "/>
<g>
	<circle fill="#FFFFFF" cx="952.535" cy="916.325" r="97.243"/>
	
		<circle fill="none" stroke="#EE2725" stroke-width="8" stroke-miterlimit="10" stroke-dasharray="11.9808,55.9104" cx="952.535" cy="916.325" r="97.243"/>
</g>
<g>
	
		<circle fill="none" stroke="#62CBE7" stroke-width="8" stroke-miterlimit="10" stroke-dasharray="11.8903,11.8903" cx="952.535" cy="916.324" r="158.955"/>
</g>
<text transform="matrix(1 0 0 1 906.7197 736.0703)"><tspan x="0" y="0" font-family="'MyriadPro-Regular'" font-size="12">Acryllic Clock Face</tspan><tspan x="11.196" y="69.604" font-family="'MyriadPro-Regular'" font-size="12">Blue LED Ring</tspan><tspan x="12.558" y="161.29" font-family="'MyriadPro-Regular'" font-size="12">Red LED Ring</tspan></text>
<line fill="none" stroke="#000000" stroke-miterlimit="10" x1="265.942" y1="674.755" x2="265.942" y2="689.578"/>
<line fill="none" stroke="#000000" stroke-miterlimit="10" x1="669.875" y1="674.755" x2="669.875" y2="689.578"/>
<line fill="none" stroke="#000000" stroke-miterlimit="10" x1="265.942" y1="682.167" x2="669.875" y2="682.167"/>
<text transform="matrix(1 0 0 1 460.7563 706.7583)" font-family="'MyriadPro-Regular'" font-size="9.2007">2 ft.</text>
<line fill="none" stroke="#000000" stroke-miterlimit="10" x1="722.199" y1="714.949" x2="707.377" y2="714.949"/>
<line fill="none" stroke="#000000" stroke-miterlimit="10" x1="722.199" y1="1118.882" x2="707.377" y2="1118.882"/>
<line fill="none" stroke="#000000" stroke-miterlimit="10" x1="714.788" y1="714.949" x2="714.788" y2="1118.882"/>
<text transform="matrix(1 0 0 1 685.7441 919.6152)" font-family="'MyriadPro-Regular'" font-size="9.2007">2 ft.</text>
<line fill="none" stroke="#000000" stroke-miterlimit="10" x1="735.274" y1="700.584" x2="711.333" y2="676.644"/>
<line fill="none" stroke="#000000" stroke-miterlimit="10" x1="772.339" y1="665.053" x2="749.483" y2="642.197"/>
<line fill="none" stroke="#000000" stroke-miterlimit="10" x1="723.854" y1="689.165" x2="760.152" y2="652.866"/>
<text transform="matrix(1 0 0 1 719.6504 661.5215)" font-family="'MyriadPro-Regular'" font-size="9.2007">6 in.</text>
<rect x="912.492" y="253.38" fill="none" stroke="#000000" stroke-miterlimit="10" width="80.086" height="403.933"/>
<text transform="matrix(1 0 0 1 942.209 215.2871)" font-family="'MyriadPro-Regular'" font-size="12">6 in.</text>
<line fill="none" stroke="#000000" stroke-miterlimit="10" x1="912.492" y1="229.344" x2="912.492" y2="244.167"/>
<line fill="none" stroke="#000000" stroke-miterlimit="10" x1="992.578" y1="229.344" x2="992.578" y2="244.167"/>
<line fill="none" stroke="#000000" stroke-miterlimit="10" x1="912.492" y1="236.755" x2="992.578" y2="236.755"/>
<text transform="matrix(1 0 0 1 920.4297 455.3477)" font-family="'MyriadPro-Regular'" font-size="12">Wood Frame</text>
<rect x="265.942" y="253.38" fill="#FFFFFF" stroke="#000000" stroke-miterlimit="10" width="403.933" height="403.933"/>
<g>
	<circle fill="#FFFFFF" cx="467.909" cy="454.756" r="97.243"/>
	
		<circle fill="none" stroke="#EE2725" stroke-width="8" stroke-miterlimit="10" stroke-dasharray="11.9808,55.9104" cx="467.909" cy="454.756" r="97.243"/>
</g>
<g>
	
		<circle fill="none" stroke="#62CBE7" stroke-width="8" stroke-miterlimit="10" stroke-dasharray="11.8903,11.8903" cx="467.909" cy="454.755" r="158.955"/>
</g>
<text transform="matrix(1 0 0 1 422.0938 274.501)"><tspan x="0" y="0" font-family="'MyriadPro-Regular'" font-size="12">Acryllic Clock Face</tspan><tspan x="11.196" y="69.604" font-family="'MyriadPro-Regular'" font-size="12">Blue LED Ring</tspan><tspan x="12.558" y="161.29" font-family="'MyriadPro-Regular'" font-size="12">Red LED Ring</tspan></text>
<text transform="matrix(1 0 0 1 445.4189 165.1177)" font-family="'MyriadPro-Regular'" font-size="20">Front</text>
<text transform="matrix(1 0 0 1 448.499 1194.0654)" font-family="'MyriadPro-Regular'" font-size="20">Back</text>
<text transform="matrix(1 0 0 1 934.6152 165.1177)" font-family="'MyriadPro-Regular'" font-size="20">Side</text>
<text transform="matrix(1 0 0 1 604.2935 73.6216)" font-family="'MyriadPro-Regular'" font-size="50">Lite Clock</text>
</svg>
